<?xml version="1.0" encoding="UTF-8" standalone="no"?>
<!DOCTYPE svg PUBLIC "-//W3C//DTD SVG 1.1//EN"
 "http://www.w3.org/Graphics/SVG/1.1/DTD/svg11.dtd">
<!-- Generated by graphviz version 7.1.0 (20230121.1956)
 -->
<!-- Pages: 1 -->
<svg width="626pt" height="653pt"
 viewBox="0.00 0.00 625.78 653.00" xmlns="http://www.w3.org/2000/svg" xmlns:xlink="http://www.w3.org/1999/xlink">
<g id="graph0" class="graph" transform="scale(1 1) rotate(0) translate(4 649)">
<polygon fill="white" stroke="none" points="-4,4 -4,-649 621.78,-649 621.78,4 -4,4"/>
<!-- 0 -->
<g id="node1" class="node">
<title>0</title>
<ellipse fill="none" stroke="black" cx="313.99" cy="-627" rx="139.98" ry="18"/>
<text text-anchor="middle" x="313.99" y="-623.3" font-family="Times,serif" font-size="14.00">Valve { name: &quot;AA&quot;, flow_rate: 0 }</text>
</g>
<!-- 1 -->
<g id="node2" class="node">
<title>1</title>
<ellipse fill="none" stroke="black" cx="142.99" cy="-540" rx="142.97" ry="18"/>
<text text-anchor="middle" x="142.99" y="-536.3" font-family="Times,serif" font-size="14.00">Valve { name: &quot;BB&quot;, flow_rate: 13 }</text>
</g>
<!-- 0&#45;&#45;1 -->
<g id="edge3" class="edge">
<title>0&#45;&#45;1</title>
<path fill="none" stroke="black" d="M280.2,-609.21C250.32,-594.35 206.94,-572.79 176.99,-557.9"/>
<text text-anchor="middle" x="243.99" y="-579.8" font-family="Times,serif" font-size="14.00">()</text>
</g>
<!-- 3 -->
<g id="node4" class="node">
<title>3</title>
<ellipse fill="none" stroke="black" cx="229.99" cy="-366" rx="143.77" ry="18"/>
<text text-anchor="middle" x="229.99" y="-362.3" font-family="Times,serif" font-size="14.00">Valve { name: &quot;DD&quot;, flow_rate: 20 }</text>
</g>
<!-- 0&#45;&#45;3 -->
<g id="edge1" class="edge">
<title>0&#45;&#45;3</title>
<path fill="none" stroke="black" d="M315.74,-608.7C318.5,-573.99 321.07,-494.1 293.99,-435 284.67,-414.66 266.8,-396.49 252.3,-384.06"/>
<text text-anchor="middle" x="317.99" y="-492.8" font-family="Times,serif" font-size="14.00">()</text>
</g>
<!-- 8 -->
<g id="node9" class="node">
<title>8</title>
<ellipse fill="none" stroke="black" cx="477.99" cy="-540" rx="132.68" ry="18"/>
<text text-anchor="middle" x="477.99" y="-536.3" font-family="Times,serif" font-size="14.00">Valve { name: &quot;II&quot;, flow_rate: 0 }</text>
</g>
<!-- 0&#45;&#45;8 -->
<g id="edge2" class="edge">
<title>0&#45;&#45;8</title>
<path fill="none" stroke="black" d="M346.39,-609.21C375.05,-594.35 416.65,-572.79 445.37,-557.9"/>
<text text-anchor="middle" x="410.99" y="-579.8" font-family="Times,serif" font-size="14.00">()</text>
</g>
<!-- 2 -->
<g id="node3" class="node">
<title>2</title>
<ellipse fill="none" stroke="black" cx="146.99" cy="-453" rx="138.38" ry="18"/>
<text text-anchor="middle" x="146.99" y="-449.3" font-family="Times,serif" font-size="14.00">Valve { name: &quot;CC&quot;, flow_rate: 2 }</text>
</g>
<!-- 1&#45;&#45;2 -->
<g id="edge4" class="edge">
<title>1&#45;&#45;2</title>
<path fill="none" stroke="black" d="M143.8,-521.8C144.49,-507.15 145.47,-486.19 146.17,-471.47"/>
<text text-anchor="middle" x="150.99" y="-492.8" font-family="Times,serif" font-size="14.00">()</text>
</g>
<!-- 2&#45;&#45;3 -->
<g id="edge5" class="edge">
<title>2&#45;&#45;3</title>
<path fill="none" stroke="black" d="M163.78,-434.8C178.18,-420.05 198.82,-398.92 213.22,-384.18"/>
<text text-anchor="middle" x="198.99" y="-405.8" font-family="Times,serif" font-size="14.00">()</text>
</g>
<!-- 4 -->
<g id="node5" class="node">
<title>4</title>
<ellipse fill="none" stroke="black" cx="229.99" cy="-279" rx="137.58" ry="18"/>
<text text-anchor="middle" x="229.99" y="-275.3" font-family="Times,serif" font-size="14.00">Valve { name: &quot;EE&quot;, flow_rate: 3 }</text>
</g>
<!-- 3&#45;&#45;4 -->
<g id="edge6" class="edge">
<title>3&#45;&#45;4</title>
<path fill="none" stroke="black" d="M229.99,-347.8C229.99,-333.15 229.99,-312.19 229.99,-297.47"/>
<text text-anchor="middle" x="234.99" y="-318.8" font-family="Times,serif" font-size="14.00">()</text>
</g>
<!-- 5 -->
<g id="node6" class="node">
<title>5</title>
<ellipse fill="none" stroke="black" cx="229.99" cy="-192" rx="136.48" ry="18"/>
<text text-anchor="middle" x="229.99" y="-188.3" font-family="Times,serif" font-size="14.00">Valve { name: &quot;FF&quot;, flow_rate: 0 }</text>
</g>
<!-- 4&#45;&#45;5 -->
<g id="edge7" class="edge">
<title>4&#45;&#45;5</title>
<path fill="none" stroke="black" d="M229.99,-260.8C229.99,-246.15 229.99,-225.19 229.99,-210.47"/>
<text text-anchor="middle" x="234.99" y="-231.8" font-family="Times,serif" font-size="14.00">()</text>
</g>
<!-- 6 -->
<g id="node7" class="node">
<title>6</title>
<ellipse fill="none" stroke="black" cx="229.99" cy="-105" rx="139.98" ry="18"/>
<text text-anchor="middle" x="229.99" y="-101.3" font-family="Times,serif" font-size="14.00">Valve { name: &quot;GG&quot;, flow_rate: 0 }</text>
</g>
<!-- 5&#45;&#45;6 -->
<g id="edge8" class="edge">
<title>5&#45;&#45;6</title>
<path fill="none" stroke="black" d="M229.99,-173.8C229.99,-159.15 229.99,-138.19 229.99,-123.47"/>
<text text-anchor="middle" x="234.99" y="-144.8" font-family="Times,serif" font-size="14.00">()</text>
</g>
<!-- 7 -->
<g id="node8" class="node">
<title>7</title>
<ellipse fill="none" stroke="black" cx="229.99" cy="-18" rx="143.77" ry="18"/>
<text text-anchor="middle" x="229.99" y="-14.3" font-family="Times,serif" font-size="14.00">Valve { name: &quot;HH&quot;, flow_rate: 22 }</text>
</g>
<!-- 6&#45;&#45;7 -->
<g id="edge9" class="edge">
<title>6&#45;&#45;7</title>
<path fill="none" stroke="black" d="M229.99,-86.8C229.99,-72.15 229.99,-51.19 229.99,-36.47"/>
<text text-anchor="middle" x="234.99" y="-57.8" font-family="Times,serif" font-size="14.00">()</text>
</g>
<!-- 9 -->
<g id="node10" class="node">
<title>9</title>
<ellipse fill="none" stroke="black" cx="479.99" cy="-453" rx="137.58" ry="18"/>
<text text-anchor="middle" x="479.99" y="-449.3" font-family="Times,serif" font-size="14.00">Valve { name: &quot;JJ&quot;, flow_rate: 21 }</text>
</g>
<!-- 8&#45;&#45;9 -->
<g id="edge10" class="edge">
<title>8&#45;&#45;9</title>
<path fill="none" stroke="black" d="M478.39,-521.8C478.74,-507.15 479.23,-486.19 479.58,-471.47"/>
<text text-anchor="middle" x="483.99" y="-492.8" font-family="Times,serif" font-size="14.00">()</text>
</g>
</g>
</svg>
